<svg xmlns="http://www.w3.org/2000/svg" version="1.1" xmlns:xlink="http://www.w3.org/1999/xlink" xmlns:svgjs="http://svgjs.dev/svgjs" width="1000" height="270" viewBox="0 0 1000 270"><g transform="matrix(1,0,0,1,-0.6060605814159317,-0.09550238521410392)"><svg viewBox="0 0 396 107" data-background-color="#070000" preserveAspectRatio="xMidYMid meet" height="270" width="1000" xmlns="http://www.w3.org/2000/svg" xmlns:xlink="http://www.w3.org/1999/xlink"><g id="tight-bounds" transform="matrix(1,0,0,1,0.23999999024070462,0.03784755380337401)"><svg viewBox="0 0 395.5199999999999 106.9243052046488" height="106.9243052046488" width="395.5199999999999"><g><svg viewBox="0 0 395.5199999999999 106.9243052046488" height="106.9243052046488" width="395.5199999999999"><g><svg viewBox="0 0 395.5199999999999 106.9243052046488" height="106.9243052046488" width="395.5199999999999"><g id="textblocktransform"><svg viewBox="0 0 395.5199999999999 106.9243052046488" height="106.9243052046488" width="395.5199999999999" id="textblock"><g><svg viewBox="0 0 395.5199999999999 106.9243052046488" height="106.9243052046488" width="395.5199999999999"><g transform="matrix(1,0,0,1,0,0)"><svg width="395.5199999999999" viewBox="1.5099999904632568 -37.15999984741211 193.25 52.25" height="106.9243052046488" data-palette-color="#ffffff"><path d="M25.29-25.68L25.29-25.68Q25.29-22.31 23.73-19.63 22.17-16.94 19.58-14.89L19.58-14.89Q20.36-13.72 21.19-12.16 22.02-10.6 22.68-8.86 23.34-7.13 23.75-5.4 24.17-3.66 24.17-2.2L24.17-2.2Q24.17-0.63 23.41 0.61 22.66 1.86 20.85 1.86L20.85 1.86Q19.34 1.86 18.24 0.39 17.14-1.07 16.28-3.1 15.43-5.13 14.72-7.23 14.01-9.33 13.38-10.6L13.38-10.6Q12.5-10.3 11.67-9.94 10.84-9.57 9.96-9.23L9.96-9.23Q9.91-8.15 9.79-6.27 9.67-4.39 9.25-2.54 8.84-0.68 8.01 0.68 7.18 2.05 5.71 2.05L5.71 2.05Q4.1 2.05 3.22 0.73 2.34-0.59 1.98-2.39 1.61-4.2 1.56-6.08 1.51-7.96 1.51-9.03L1.51-9.03Q1.51-11.33 1.61-13.55 1.71-15.77 1.71-18.07L1.71-18.07Q1.71-20.17 1.64-22.27 1.56-24.37 1.56-26.51L1.56-26.51Q1.56-27 1.56-27.76 1.56-28.52 1.64-29.32 1.71-30.13 1.81-30.86 1.9-31.59 2.15-32.03L2.15-32.03Q2.64-33.06 4.37-33.98 6.1-34.91 8.18-35.62 10.25-36.33 12.23-36.74 14.21-37.16 15.19-37.16L15.19-37.16Q17.68-37.16 19.58-36.23 21.48-35.3 22.75-33.72 24.02-32.13 24.66-30.05 25.29-27.98 25.29-25.68ZM16.26-25L16.26-25Q16.26-26.27 15.67-26.93 15.09-27.59 13.77-27.59L13.77-27.59Q12.79-27.59 11.79-27.25 10.79-26.9 9.96-26.46L9.96-26.46Q10.16-22.61 10.11-18.8L10.11-18.8Q11.13-19.14 12.21-19.68 13.28-20.21 14.18-21 15.09-21.78 15.67-22.75 16.26-23.73 16.26-25ZM47.46-8.69L47.46-8.69Q47.46-7.03 46.41-5.44 45.36-3.86 43.77-2.61 42.19-1.37 40.38-0.61 38.57 0.15 37.06 0.15L37.06 0.15Q34.47 0.15 32.44-1.15 30.42-2.44 29.05-4.44 27.68-6.45 26.98-8.86 26.27-11.28 26.27-13.57L26.27-13.57Q26.27-16.02 26.95-18.8 27.63-21.58 29.03-23.93 30.42-26.27 32.54-27.83 34.67-29.39 37.6-29.39L37.6-29.39Q39.26-29.39 40.77-28.83 42.28-28.27 43.41-27.25 44.53-26.22 45.21-24.8 45.9-23.39 45.9-21.63L45.9-21.63Q45.9-19.34 44.92-17.33 43.94-15.33 42.33-13.87 40.72-12.4 38.62-11.5 36.52-10.6 34.32-10.5L34.32-10.5Q34.52-9.08 35.47-8.45 36.42-7.81 37.74-7.81L37.74-7.81Q38.72-7.81 39.65-8.3 40.57-8.79 41.45-9.4 42.33-10.01 43.19-10.5 44.04-10.99 44.92-10.99L44.92-10.99Q45.9-10.99 46.68-10.35 47.46-9.72 47.46-8.69ZM39.55-20.65L39.55-20.65Q39.55-21.29 39.21-21.97 38.86-22.66 38.13-22.66L38.13-22.66Q37.06-22.66 36.33-22.09 35.59-21.53 35.1-20.68 34.62-19.82 34.35-18.85 34.08-17.87 34.03-17.04L34.03-17.04Q34.71-17.19 35.67-17.43 36.62-17.68 37.47-18.09 38.33-18.51 38.94-19.14 39.55-19.78 39.55-20.65ZM71.53-16.65L71.53-16.65Q71.53-14.16 71.45-11.67 71.38-9.18 71.19-6.69L71.19-6.69Q71.04-4.54 70.8-2.1 70.55 0.34 70.01 2.76 69.48 5.18 68.6 7.4 67.72 9.62 66.28 11.33 64.84 13.04 62.79 14.06 60.74 15.09 57.91 15.09L57.91 15.09Q56.59 15.09 54.95 14.67 53.32 14.26 51.87 13.48 50.43 12.7 49.43 11.55 48.43 10.4 48.43 8.89L48.43 8.89Q48.43 7.76 49.24 6.81 50.04 5.86 51.31 5.86L51.31 5.86Q52.09 5.86 52.8 6.13 53.51 6.4 54.22 6.74 54.93 7.08 55.59 7.35 56.25 7.62 56.93 7.62L56.93 7.62Q58.74 7.62 59.96 6.71 61.18 5.81 61.91 4.42 62.64 3.03 63.01 1.39 63.37-0.24 63.52-1.71L63.52-1.71Q62.54-0.59 61.25-0.17 59.96 0.24 58.54 0.24L58.54 0.24Q55.95 0.24 54.15-0.66 52.34-1.56 51.22-3.15 50.09-4.74 49.56-6.84 49.02-8.94 49.02-11.38L49.02-11.38Q49.02-12.89 49.34-14.79 49.65-16.7 50.29-18.65 50.92-20.61 51.87-22.46 52.83-24.32 54.1-25.73 55.37-27.15 56.95-28.03 58.54-28.91 60.44-28.91L60.44-28.91Q62.3-28.91 63.74-27.83 65.18-26.76 65.42-24.8L65.42-24.8Q65.96-25.83 66.84-26.83 67.72-27.83 68.99-27.83L68.99-27.83Q69.67-27.83 70.14-27.15 70.6-26.46 70.87-25.37 71.14-24.27 71.28-22.97 71.43-21.68 71.48-20.43 71.53-19.19 71.53-18.16 71.53-17.14 71.53-16.65ZM64.11-13.48L64.11-13.48Q64.11-14.21 63.89-15.38 63.67-16.55 63.25-17.63 62.84-18.7 62.2-19.48 61.57-20.26 60.69-20.26L60.69-20.26Q59.57-20.26 58.71-19.48 57.86-18.7 57.27-17.6 56.68-16.5 56.37-15.26 56.05-14.01 56.05-13.13L56.05-13.13Q56.05-12.5 56.15-11.43 56.25-10.35 56.56-9.33 56.88-8.3 57.42-7.57 57.95-6.84 58.83-6.84L58.83-6.84Q60.15-6.84 61.13-7.47 62.1-8.11 62.76-9.08 63.42-10.06 63.76-11.23 64.11-12.4 64.11-13.48ZM95.45-8.69L95.45-8.69Q95.45-7.03 94.4-5.44 93.35-3.86 91.76-2.61 90.18-1.37 88.37-0.61 86.56 0.15 85.05 0.15L85.05 0.15Q82.46 0.15 80.44-1.15 78.41-2.44 77.04-4.44 75.68-6.45 74.97-8.86 74.26-11.28 74.26-13.57L74.26-13.57Q74.26-16.02 74.94-18.8 75.63-21.58 77.02-23.93 78.41-26.27 80.53-27.83 82.66-29.39 85.59-29.39L85.59-29.39Q87.25-29.39 88.76-28.83 90.28-28.27 91.4-27.25 92.52-26.22 93.21-24.8 93.89-23.39 93.89-21.63L93.89-21.63Q93.89-19.34 92.91-17.33 91.94-15.33 90.32-13.87 88.71-12.4 86.61-11.5 84.51-10.6 82.32-10.5L82.32-10.5Q82.51-9.08 83.46-8.45 84.42-7.81 85.73-7.81L85.73-7.81Q86.71-7.81 87.64-8.3 88.57-8.79 89.45-9.4 90.32-10.01 91.18-10.5 92.03-10.99 92.91-10.99L92.91-10.99Q93.89-10.99 94.67-10.35 95.45-9.72 95.45-8.69ZM87.54-20.65L87.54-20.65Q87.54-21.29 87.2-21.97 86.86-22.66 86.13-22.66L86.13-22.66Q85.05-22.66 84.32-22.09 83.59-21.53 83.1-20.68 82.61-19.82 82.34-18.85 82.07-17.87 82.02-17.04L82.02-17.04Q82.71-17.19 83.66-17.43 84.61-17.68 85.47-18.09 86.32-18.51 86.93-19.14 87.54-19.78 87.54-20.65ZM118.01-25.2L118.01-25.2Q118.01-24.41 117.71-23.56 117.42-22.71 116.98-21.83 116.54-20.95 116.05-20.14 115.57-19.34 115.18-18.65L115.18-18.65Q114.2-17.09 113.25-15.48 112.29-13.87 111.32-12.3L111.32-12.3Q111.76-11.62 112.54-10.4 113.32-9.18 114.08-7.84 114.83-6.49 115.37-5.18 115.91-3.86 115.91-2.93L115.91-2.93Q115.91-2.05 115.22-1.22 114.54-0.39 113.56-0.39L113.56-0.39Q112.54-0.39 111.49-1.12 110.44-1.86 109.44-2.86 108.44-3.86 107.61-4.96 106.78-6.05 106.19-6.79L106.19-6.79Q105.56-6.1 104.56-4.93 103.55-3.76 102.41-2.64 101.26-1.51 100.14-0.71 99.01 0.1 98.13 0.1L98.13 0.1Q97.11 0.1 96.52-0.63 95.94-1.37 95.94-2.34L95.94-2.34Q95.94-3.32 96.6-4.83 97.26-6.35 98.16-7.96 99.06-9.57 99.97-11.04 100.87-12.5 101.36-13.33L101.36-13.33Q100.87-14.21 100.14-15.65 99.4-17.09 98.74-18.68 98.09-20.26 97.62-21.8 97.16-23.34 97.16-24.37L97.16-24.37Q97.16-25.49 97.84-26.17 98.53-26.86 99.65-26.86L99.65-26.86Q100.87-26.86 101.94-25.9 103.02-24.95 103.95-23.61 104.87-22.27 105.58-20.83 106.29-19.38 106.73-18.46L106.73-18.46Q107.31-19.34 108.36-20.85 109.41-22.36 110.73-23.83 112.05-25.29 113.47-26.37 114.88-27.44 116.15-27.44L116.15-27.44Q116.98-27.44 117.49-26.73 118.01-26.03 118.01-25.2ZM128.26 1.42L128.26 1.42Q125.77 1.42 123.91 0.1 122.06-1.22 120.79-3.27 119.52-5.32 118.88-7.84 118.25-10.35 118.25-12.79L118.25-12.79Q118.25-15.38 118.88-18.14 119.52-20.9 120.84-23.17 122.16-25.44 124.21-26.88 126.26-28.32 129.09-28.32L129.09-28.32Q131.82-28.32 133.75-26.83 135.68-25.34 136.85-23.12 138.02-20.9 138.51-18.26 139-15.63 138.85-13.28L138.85-13.28Q138.71-10.69 138.05-8.06 137.39-5.42 136.12-3.32 134.85-1.22 132.9 0.1 130.94 1.42 128.26 1.42ZM128.75-20.65L128.75-20.65Q128.01-20.65 127.45-19.87 126.89-19.09 126.53-17.97 126.16-16.85 125.96-15.6 125.77-14.36 125.77-13.43L125.77-13.43Q125.77-12.26 125.99-10.89 126.21-9.52 126.6-8.37 126.99-7.23 127.55-6.47 128.11-5.71 128.84-5.71L128.84-5.71Q129.63-5.71 130.19-6.45 130.75-7.18 131.09-8.3 131.43-9.42 131.58-10.77 131.73-12.11 131.73-13.28L131.73-13.28Q131.73-14.36 131.53-15.65 131.34-16.94 130.97-18.07 130.6-19.19 130.04-19.92 129.48-20.65 128.75-20.65ZM155.21 1.37L155.21 1.37Q154.38 1.37 153.89 0.61 153.4-0.15 153.16-1.12 152.91-2.1 152.84-3.1 152.77-4.1 152.77-4.64L152.77-4.64Q152.77-6.1 152.94-7.57 153.11-9.03 153.33-10.5 153.55-11.96 153.72-13.43 153.89-14.89 153.89-16.36L153.89-16.36Q153.89-16.94 153.84-17.63 153.79-18.31 153.62-18.92 153.45-19.53 153.06-19.92 152.67-20.31 152.04-20.31L152.04-20.31Q151.6-20.31 151.06-19.6 150.52-18.9 150.06-17.99 149.59-17.09 149.28-16.19 148.96-15.28 148.96-14.84L148.96-14.84Q148.96-13.77 148.98-12.67 149.01-11.57 149.01-10.45L149.01-10.45 149.01-7.62Q148.96-6.74 148.86-5.81 148.76-4.88 148.57-4L148.57-4Q148.42-3.13 148.13-2.32 147.84-1.51 147.37-0.9 146.91-0.29 146.27 0.1 145.64 0.49 144.76 0.49L144.76 0.49Q143.78 0.49 143.15-0.15 142.51-0.78 142.12-1.78 141.73-2.78 141.56-4.03 141.39-5.27 141.32-6.47 141.24-7.67 141.27-8.67 141.29-9.67 141.29-10.25L141.29-10.25 141.29-12.55Q141.29-14.4 141.22-16.21 141.15-18.02 141.15-19.82L141.15-19.82Q141.15-20.8 141.17-22.31 141.2-23.83 141.54-25.27 141.88-26.71 142.66-27.73 143.44-28.76 144.96-28.76L144.96-28.76Q145.64-28.76 146.18-28.32 146.71-27.88 147.13-27.25 147.54-26.61 147.81-25.88 148.08-25.15 148.23-24.61L148.23-24.61Q148.72-25.29 149.37-25.93 150.03-26.56 150.86-27.05 151.69-27.54 152.72-27.83 153.74-28.13 155.06-28.13L155.06-28.13Q157.55-28.13 158.94-26.93 160.34-25.73 161-23.95 161.65-22.17 161.8-20.12 161.95-18.07 161.95-16.41L161.95-16.41Q161.95-15.58 161.8-13.94 161.65-12.3 161.34-10.33 161.02-8.35 160.48-6.27 159.95-4.2 159.21-2.49 158.48-0.78 157.48 0.29 156.48 1.37 155.21 1.37ZM172.74-34.08L172.74-34.08Q172.74-33.4 172.37-32.86 172-32.32 171.42-31.91 170.83-31.49 170.15-31.27 169.46-31.05 168.88-31.05L168.88-31.05Q167.9-31.05 167.17-31.54 166.44-32.03 166.44-33.06L166.44-33.06Q166.44-33.79 166.8-34.35 167.17-34.91 167.71-35.28 168.24-35.64 168.93-35.84 169.61-36.04 170.25-36.04L170.25-36.04Q171.17-36.04 171.96-35.6 172.74-35.16 172.74-34.08ZM173.13-17.48L173.13-17.48Q173.13-16.8 173.13-16.04 173.13-15.28 173.08-14.6L173.08-14.6Q173.03-13.77 173.03-12.38 173.03-10.99 172.93-9.38 172.83-7.76 172.61-6.1 172.39-4.44 171.91-3.08 171.42-1.71 170.61-0.85 169.81 0 168.59 0.05L168.59 0.05Q167.66 0.1 167.02-0.68 166.39-1.46 165.97-2.71 165.56-3.96 165.36-5.49 165.17-7.03 165.07-8.47 164.97-9.91 164.97-11.13 164.97-12.35 164.97-12.94L164.97-12.94Q164.97-13.72 164.97-15.16 164.97-16.6 165.07-18.26 165.17-19.92 165.44-21.63 165.71-23.34 166.22-24.76 166.73-26.17 167.56-27.05 168.39-27.93 169.66-27.93L169.66-27.93Q170.98-27.93 171.66-26.61 172.35-25.29 172.69-23.54 173.03-21.78 173.08-20.04 173.13-18.31 173.13-17.48ZM194.71-18.75L194.71-18.75Q194.71-18.51 194.66-18.24 194.61-17.97 194.51-17.72L194.51-17.72Q194.07-16.6 193.14-15.84 192.22-15.09 190.95-15.09L190.95-15.09Q189.04-15.09 188.36-16.99L188.36-16.99Q188.26-17.24 188.26-17.55 188.26-17.87 188.21-18.21L188.21-18.21 188.21-19.63Q188.11-20.31 187.87-20.7 187.63-21.09 187.04-21.09L187.04-21.09Q186.21-21.09 185.45-20.04 184.7-18.99 184.14-17.55 183.57-16.11 183.23-14.6 182.89-13.09 182.89-12.16L182.89-12.16Q182.89-11.43 182.99-10.38 183.09-9.33 183.38-8.35 183.67-7.37 184.18-6.67 184.7-5.96 185.53-5.96L185.53-5.96Q186.36-5.96 187.06-6.47 187.77-6.98 188.46-7.67L188.46-7.67Q189.09-8.25 189.85-8.89 190.61-9.52 191.58-9.52L191.58-9.52Q192.8-9.52 193.51-8.64 194.22-7.76 194.22-6.64L194.22-6.64Q194.22-4.98 193.34-3.54 192.46-2.1 191.14-1.05 189.82 0 188.21 0.61 186.6 1.22 185.14 1.22L185.14 1.22Q182.5 1.22 180.67-0.1 178.84-1.42 177.71-3.44 176.59-5.47 176.1-7.86 175.61-10.25 175.61-12.4L175.61-12.4Q175.61-14.89 176.3-17.8 176.98-20.7 178.4-23.19 179.81-25.68 182.04-27.34 184.26-29 187.33-29L187.33-29Q189.24-29 190.63-28.17 192.02-27.34 192.92-26 193.83-24.66 194.29-23 194.76-21.34 194.76-19.73L194.76-19.73Q194.76-19.48 194.76-19.24 194.76-18.99 194.71-18.75Z" opacity="1" transform="matrix(1,0,0,1,0,0)" fill="#000000" class="undefined-text-0" data-fill-palette-color="primary" id="text-0"></path></svg></g></svg></g></svg></g></svg></g><g></g></svg></g><defs></defs></svg><rect width="395.5199999999999" height="106.9243052046488" fill="none" stroke="none" visibility="hidden"></rect></g></svg></g></svg>